# xmcd
#
# Track frame offsets:
# 150
# 16561
# 29019
# 41004
# 53037
# 65725
# 78074
# 89747
# 100505
# 111881
# 121866
# 133445
# 145659
# 157281
# 167399
# 180557
# 193005
# 208013
# 222317
# 244472
# 276269
# 306414
#
# Disc length: 4292 seconds
#
#
# Revision: 0
# Processed by: cddbd v1.5.1PL0 Copyright (c) Steve Scherf et al.
# Submitted via: FreeRIP 2.942 
#
DISCID=4410c216
DTITLE=Drunken Monkey Soul Club
DYEAR=1900
DGENRE=
TTITLE0=Lonnie Hill - Cold Xmas In The Getto
TTITLE1=September Jones - I'm Coming Home
TTITLE2=Isonics - Sugar
TTITLE3=El Corols - Chick Chick
TTITLE4=B J Thomas - Keep It Up
TTITLE5=Beau Lights - They Don't Know
TTITLE6=Clarence Townsend - I Found ANew Love
TTITLE7=Ronnie McNeir - Isn't She A Pretty Girl
TTITLE8=Liitle Dooley - If Ever You Need Me
TTITLE9=Curtis Knight - Voodoo Woman
TTITLE10=Dean Barlow - Third Window From The Right
TTITLE11=Betty Lou and Bobby Adams - Dr Truelove
TTITLE12=Albert Washington - I'm The Man
TTITLE13=Ted Taylor - Miss You So
TTITLE14=Jimmy Ellis - Happy To Be
TTITLE15=Eddie Floyd -  That's All
TTITLE16=Houston Outlaws - Ain't No Telling
TTITLE17=Jones - Name Of The Game
TTITLE18=Gayle Adams - Baby I Need Your Loving
TTITLE19=Jamaica Underground - Love Existing
TTITLE20=GQ 2002 - Make Your Dreams Reality
TTITLE21=Cunnie Williams - Everything I Do
EXTD=
EXTT0=
EXTT1=
EXTT2=
EXTT3=
EXTT4=
EXTT5=
EXTT6=
EXTT7=
EXTT8=
EXTT9=
EXTT10=
EXTT11=
EXTT12=
EXTT13=
EXTT14=
EXTT15=
EXTT16=
EXTT17=
EXTT18=
EXTT19=
EXTT20=
EXTT21=
PLAYORDER=
